umbra-8.ufo
<glyph name="exclam" format="1">
  <advance width="291"/>
  <unicode hex="0021"/>
  <outline>
    <contour>
      <point x="-115" y="103" type="line"/>
      <point x="-145" y="383" type="line"/>
      <point x="15" y="383" type="line"/>
      <point x="-15" y="103" type="line"/>
    </contour>
    <contour>
      <point x="-65" y="-145" type="line"/>
      <point x="-170" y="-40" type="line"/>
      <point x="-65" y="66" type="line"/>
      <point x="41" y="-40" type="line"/>
    </contour>
  </outline>
</glyph>
<glyph name="dollar" format="1">
  <advance width="449"/>
  <unicode hex="0024"/>
  <outline>
    <contour>
      <point x="69" y="33" type="curve" smooth="yes"/>
      <point x="69" y="93"/>
      <point x="-164" y="96"/>
      <point x="-164" y="246" type="curve" smooth="yes"/>
      <point x="-164" y="325"/>
      <point x="-108" y="376"/>
      <point x="-30" y="392" type="curve"/>
      <point x="-45" y="453" type="line"/>
      <point x="95" y="453" type="line"/>
      <point x="80" y="392" type="line"/>
      <point x="126" y="380"/>
      <point x="168" y="353"/>
      <point x="205" y="311" type="curve"/>
      <point x="165" y="201" type="line"/>
      <point x="125" y="239"/>
      <point x="77" y="278"/>
      <point x="29" y="278" type="curve" smooth="yes"/>
      <point x="1" y="278"/>
      <point x="-9" y="264"/>
      <point x="-9" y="246" type="curve" smooth="yes"/>
      <point x="-9" y="186"/>
      <point x="214" y="179"/>
      <point x="214" y="35" type="curve" smooth="yes"/>
      <point x="214" y="-70"/>
      <point x="149" y="-115"/>
      <point x="66" y="-128" type="curve"/>
      <point x="82" y="-192" type="line"/>
      <point x="-58" y="-192" type="line"/>
      <point x="-42" y="-128" type="line"/>
      <point x="-111" y="-118"/>
      <point x="-163" y="-88"/>
      <point x="-195" y="-50" type="curve"/>
      <point x="-155" y="65" type="line"/>
      <point x="-115" y="27"/>
      <point x="-46" y="-7"/>
      <point x="2" y="-7" type="curve" smooth="yes"/>
      <point x="40" y="-7"/>
      <point x="69" y="2"/>
    </contour>
  </outline>
</glyph>
<glyph name="quotesingle" format="1">
  <advance width="220"/>
  <unicode hex="0027"/>
  <outline>
    <contour>
      <point x="-165" y="123" type="line"/>
      <point x="-165" y="383" type="line"/>
      <point x="-35" y="383" type="line"/>
      <point x="-35" y="243" type="line"/>
    </contour>
  </outline>
</glyph>
<glyph name="parenleft" format="1">
  <advance width="232"/>
  <unicode hex="0028"/>
  <outline>
    <contour>
      <point x="-68" y="-157" type="line"/>
      <point x="-143" y="-72"/>
      <point x="-180" y="33"/>
      <point x="-180" y="138" type="curve" smooth="yes"/>
      <point x="-180" y="243"/>
      <point x="-143" y="348"/>
      <point x="-68" y="433" type="curve"/>
      <point x="22" y="433" type="line"/>
      <point x="-28" y="358"/>
      <point x="-52" y="248"/>
      <point x="-52" y="138" type="curve" smooth="yes"/>
      <point x="-52" y="28"/>
      <point x="-28" y="-82"/>
      <point x="22" y="-157" type="curve"/>
    </contour>
  </outline>
</glyph>
<glyph name="asterisk" format="1">
  <advance width="459"/>
  <unicode hex="002A"/>
  <outline>
    <contour>
      <point x="-18" y="200" type="line"/>
      <point x="-45" y="343" type="line"/>
      <point x="85" y="343" type="line"/>
      <point x="57" y="200" type="line"/>
      <point x="169" y="294" type="line"/>
      <point x="234" y="182" type="line"/>
      <point x="95" y="133" type="line"/>
      <point x="234" y="84" type="line"/>
      <point x="169" y="-28" type="line"/>
      <point x="57" y="66" type="line"/>
      <point x="85" y="-77" type="line"/>
      <point x="-45" y="-77" type="line"/>
      <point x="-18" y="66" type="line"/>
      <point x="-130" y="-28" type="line"/>
      <point x="-195" y="84" type="line"/>
      <point x="-56" y="133" type="line"/>
      <point x="-195" y="182" type="line"/>
      <point x="-130" y="294" type="line"/>
    </contour>
  </outline>
</glyph>
<glyph name="comma" format="1">
  <advance width="220"/>
  <unicode hex="002C"/>
  <outline>
    <contour>
      <point x="-165" y="-237" type="line"/>
      <point x="-165" y="23" type="line"/>
      <point x="-35" y="23" type="line"/>
      <point x="-35" y="-117" type="line"/>
    </contour>
  </outline>
</glyph>
<glyph name="hyphen" format="1">
  <advance width="560"/>
  <unicode hex="002D"/>
  <outline>
    <contour>
      <point x="-125" y="153" type="line"/>
      <point x="-125" y="263" type="line"/>
      <point x="265" y="263" type="line"/>
      <point x="265" y="153" type="line"/>
    </contour>
  </outline>
</glyph>
<glyph name="slash" format="1">
  <advance width="460"/>
  <unicode hex="002F"/>
  <outline>
    <contour>
      <point x="-200" y="-117" type="line"/>
      <point x="110" y="383" type="line"/>
      <point x="240" y="383" type="line"/>
      <point x="-70" y="-117" type="line"/>
    </contour>
  </outline>
</glyph>
<glyph name="five" format="1">
  <advance width="449"/>
  <unicode hex="0035"/>
  <outline>
    <contour>
      <point x="-145" y="122" type="line"/>
      <point x="-115" y="383" type="line"/>
      <point x="185" y="383" type="line"/>
      <point x="175" y="268" type="line"/>
      <point x="-8" y="268" type="line"/>
      <point x="-14" y="217" type="line"/>
      <point x="101" y="216"/>
      <point x="204" y="161"/>
      <point x="204" y="35" type="curve" smooth="yes"/>
      <point x="204" y="-92"/>
      <point x="89" y="-132"/>
      <point x="2" y="-132" type="curve" smooth="yes"/>
      <point x="-75" y="-132"/>
      <point x="-145" y="-97"/>
      <point x="-185" y="-60" type="curve"/>
      <point x="-165" y="65" type="line"/>
      <point x="-125" y="27"/>
      <point x="-76" y="-7"/>
      <point x="-18" y="-7" type="curve" smooth="yes"/>
      <point x="30" y="-7"/>
      <point x="59" y="12"/>
      <point x="59" y="63" type="curve" smooth="yes"/>
      <point x="59" y="121"/>
      <point x="-20" y="122"/>
      <point x="-68" y="122" type="curve" smooth="yes"/>
    </contour>
  </outline>
</glyph>
<glyph name="six" format="1">
  <advance width="474"/>
  <unicode hex="0036"/>
  <outline>
    <contour>
      <point x="-35" y="45" type="curve" smooth="yes"/>
      <point x="-35" y="17"/>
      <point x="-16" y="-12"/>
      <point x="32" y="-12" type="curve" smooth="yes"/>
      <point x="80" y="-12"/>
      <point x="99" y="17"/>
      <point x="99" y="45" type="curve" smooth="yes"/>
      <point x="99" y="73"/>
      <point x="80" y="102"/>
      <point x="32" y="102" type="curve" smooth="yes"/>
      <point x="-16" y="102"/>
      <point x="-35" y="73"/>
    </contour>
    <contour>
      <point x="229" y="45" type="curve" smooth="yes"/>
      <point x="229" y="-62"/>
      <point x="154" y="-127"/>
      <point x="37" y="-127" type="curve" smooth="yes"/>
      <point x="-120" y="-127"/>
      <point x="-175" y="-2"/>
      <point x="-175" y="115" type="curve" smooth="yes"/>
      <point x="-175" y="242"/>
      <point x="-99" y="393"/>
      <point x="38" y="393" type="curve" smooth="yes"/>
      <point x="115" y="393"/>
      <point x="185" y="358"/>
      <point x="225" y="311" type="curve"/>
      <point x="184" y="205" type="line"/>
      <point x="144" y="243"/>
      <point x="107" y="273"/>
      <point x="59" y="273" type="curve" smooth="yes"/>
      <point x="-9" y="273"/>
      <point x="-38" y="214"/>
      <point x="-44" y="146" type="curve"/>
      <point x="-14" y="183"/>
      <point x="32" y="197"/>
      <point x="67" y="197" type="curve" smooth="yes"/>
      <point x="134" y="197"/>
      <point x="229" y="152"/>
    </contour>
  </outline>
</glyph>
<glyph name="question" format="1">
  <advance width="464"/>
  <unicode hex="003F"/>
  <outline>
    <contour>
      <point x="-43" y="87" type="line"/>
      <point x="-73" y="187" type="line"/>
      <point x="-3" y="187" type="line" smooth="yes"/>
      <point x="45" y="187"/>
      <point x="54" y="212"/>
      <point x="54" y="240" type="curve" smooth="yes"/>
      <point x="54" y="263"/>
      <point x="40" y="278"/>
      <point x="12" y="278" type="curve" smooth="yes"/>
      <point x="-36" y="278"/>
      <point x="-84" y="239"/>
      <point x="-124" y="201" type="curve"/>
      <point x="-164" y="311" type="line"/>
      <point x="-114" y="368"/>
      <point x="-54" y="398"/>
      <point x="13" y="398" type="curve" smooth="yes"/>
      <point x="120" y="398"/>
      <point x="205" y="353"/>
      <point x="205" y="256" type="curve" smooth="yes"/>
      <point x="205" y="181"/>
      <point x="157" y="148"/>
      <point x="82" y="137" type="curve"/>
      <point x="67" y="87" type="line"/>
    </contour>
    <contour>
      <point x="15" y="-145" type="line"/>
      <point x="-90" y="-40" type="line"/>
      <point x="15" y="66" type="line"/>
      <point x="121" y="-40" type="line"/>
    </contour>
  </outline>
</glyph>
<glyph name="at" format="1">
  <advance width="700"/>
  <unicode hex="0040"/>
  <outline>
    <contour>
      <point x="470" y="103" type="curve" smooth="yes"/>
      <point x="470" y="-27"/>
      <point x="423" y="-129"/>
      <point x="296" y="-129" type="curve" smooth="yes"/>
      <point x="249" y="-129"/>
      <point x="204" y="-118"/>
      <point x="189" y="-72" type="curve"/>
      <point x="165" y="-99"/>
      <point x="133" y="-117"/>
      <point x="97" y="-117" type="curve" smooth="yes"/>
      <point x="-10" y="-117"/>
      <point x="-55" y="-22"/>
      <point x="-55" y="65" type="curve" smooth="yes"/>
      <point x="-55" y="152"/>
      <point x="0" y="248"/>
      <point x="87" y="248" type="curve" smooth="yes"/>
      <point x="124" y="248"/>
      <point x="157" y="231"/>
      <point x="184" y="205" type="curve"/>
      <point x="184" y="238" type="line"/>
      <point x="319" y="238" type="line"/>
      <point x="319" y="-7" type="line" smooth="yes"/>
      <point x="319" y="-35"/>
      <point x="321" y="-44"/>
      <point x="336" y="-44" type="curve" smooth="yes"/>
      <point x="364" y="-44"/>
      <point x="385" y="23"/>
      <point x="385" y="103" type="curve" smooth="yes"/>
      <point x="385" y="276"/>
      <point x="267" y="333"/>
      <point x="145" y="333" type="curve" smooth="yes"/>
      <point x="33" y="333"/>
      <point x="-105" y="246"/>
      <point x="-105" y="73" type="curve" smooth="yes"/>
      <point x="-105" y="-130"/>
      <point x="23" y="-182"/>
      <point x="175" y="-182" type="curve"/>
      <point x="175" y="-247" type="line"/>
      <point x="-50" y="-247"/>
      <point x="-190" y="-146"/>
      <point x="-190" y="73" type="curve" smooth="yes"/>
      <point x="-190" y="262"/>
      <point x="-40" y="403"/>
      <point x="145" y="403" type="curve" smooth="yes"/>
      <point x="340" y="403"/>
      <point x="470" y="272"/>
    </contour>
    <contour>
      <point x="184" y="12" type="curve"/>
      <point x="184" y="119" type="line"/>
      <point x="167" y="137"/>
      <point x="143" y="143"/>
      <point x="127" y="143" type="curve" smooth="yes"/>
      <point x="99" y="143"/>
      <point x="80" y="113"/>
      <point x="80" y="65" type="curve" smooth="yes"/>
      <point x="80" y="17"/>
      <point x="99" y="-12"/>
      <point x="127" y="-12" type="curve" smooth="yes"/>
      <point x="143" y="-12"/>
      <point x="167" y="-5"/>
    </contour>
  </outline>
</glyph>
<glyph name="D" format="1">
  <advance width="555"/>
  <unicode hex="0044"/>
  <outline>
    <contour>
      <point x="-165" y="-117" type="curve"/>
      <point x="-165" y="383" type="line"/>
      <point x="-92" y="383"/>
      <point x="-18" y="383"/>
      <point x="55" y="383" type="curve" smooth="yes"/>
      <point x="230" y="383"/>
      <point x="315" y="282"/>
      <point x="315" y="133" type="curve" smooth="yes"/>
      <point x="315" y="-16"/>
      <point x="230" y="-117"/>
      <point x="55" y="-117" type="curve" smooth="yes"/>
      <point x="-18" y="-117"/>
      <point x="-92" y="-117"/>
    </contour>
    <contour>
      <point x="55" y="3" type="line" smooth="yes"/>
      <point x="117" y="3"/>
      <point x="170" y="40"/>
      <point x="170" y="133" type="curve" smooth="yes"/>
      <point x="170" y="226"/>
      <point x="117" y="263"/>
      <point x="55" y="263" type="curve" smooth="yes"/>
      <point x="-25" y="263" type="line"/>
      <point x="-25" y="3" type="line"/>
    </contour>
  </outline>
</glyph>
<glyph name="K" format="1">
  <advance width="525"/>
  <unicode hex="004B"/>
  <outline>
    <contour>
      <point x="-165" y="-117" type="line"/>
      <point x="-165" y="383" type="line"/>
      <point x="-25" y="383" type="line"/>
      <point x="-25" y="176" type="line"/>
      <point x="135" y="383" type="line"/>
      <point x="305" y="383" type="line"/>
      <point x="125" y="163" type="line"/>
      <point x="315" y="-117" type="line"/>
      <point x="135" y="-117" type="line"/>
      <point x="-25" y="119" type="line"/>
      <point x="-25" y="-117" type="line"/>
    </contour>
  </outline>
</glyph>
<glyph name="N" format="1">
  <advance width="590"/>
  <unicode hex="004E"/>
  <outline>
    <contour>
      <point x="-165" y="-117" type="line"/>
      <point x="-165" y="383" type="line"/>
      <point x="5" y="383" type="line"/>
      <point x="195" y="66" type="line"/>
      <point x="195" y="383" type="line"/>
      <point x="335" y="383" type="line"/>
      <point x="335" y="-117" type="line"/>
      <point x="165" y="-117" type="line"/>
      <point x="-25" y="200" type="line"/>
      <point x="-25" y="-117" type="line"/>
    </contour>
  </outline>
</glyph>
<glyph name="Q" format="1">
  <advance width="610"/>
  <unicode hex="0051"/>
  <outline>
    <contour>
      <point x="-180" y="133" type="curve" smooth="yes"/>
      <point x="-180" y="282"/>
      <point x="-80" y="403"/>
      <point x="95" y="403" type="curve" smooth="yes"/>
      <point x="270" y="403"/>
      <point x="370" y="282"/>
      <point x="370" y="133" type="curve" smooth="yes"/>
      <point x="370" y="17"/>
      <point x="310" y="-82"/>
      <point x="201" y="-120" type="curve"/>
      <point x="355" y="-267" type="line"/>
      <point x="155" y="-267" type="line"/>
      <point x="41" y="-133" type="line"/>
      <point x="-100" y="-111"/>
      <point x="-180" y="0"/>
    </contour>
    <contour>
      <point x="-35" y="133" type="curve" smooth="yes"/>
      <point x="-35" y="40"/>
      <point x="33" y="-12"/>
      <point x="95" y="-12" type="curve" smooth="yes"/>
      <point x="157" y="-12"/>
      <point x="225" y="40"/>
      <point x="225" y="133" type="curve" smooth="yes"/>
      <point x="225" y="226"/>
      <point x="157" y="278"/>
      <point x="95" y="278" type="curve" smooth="yes"/>
      <point x="33" y="278"/>
      <point x="-35" y="226"/>
    </contour>
  </outline>
</glyph>
<glyph name="S" format="1">
  <advance width="449"/>
  <unicode hex="0053"/>
  <outline>
    <contour>
      <point x="69" y="33" type="curve" smooth="yes"/>
      <point x="69" y="93"/>
      <point x="-164" y="96"/>
      <point x="-164" y="246" type="curve" smooth="yes"/>
      <point x="-164" y="343"/>
      <point x="-79" y="398"/>
      <point x="28" y="398" type="curve" smooth="yes"/>
      <point x="95" y="398"/>
      <point x="155" y="368"/>
      <point x="205" y="311" type="curve"/>
      <point x="165" y="201" type="line"/>
      <point x="125" y="239"/>
      <point x="77" y="278"/>
      <point x="29" y="278" type="curve" smooth="yes"/>
      <point x="1" y="278"/>
      <point x="-9" y="264"/>
      <point x="-9" y="246" type="curve" smooth="yes"/>
      <point x="-9" y="186"/>
      <point x="214" y="179"/>
      <point x="214" y="35" type="curve" smooth="yes"/>
      <point x="214" y="-92"/>
      <point x="119" y="-132"/>
      <point x="12" y="-132" type="curve" smooth="yes"/>
      <point x="-85" y="-132"/>
      <point x="-155" y="-97"/>
      <point x="-195" y="-50" type="curve"/>
      <point x="-155" y="65" type="line"/>
      <point x="-115" y="27"/>
      <point x="-46" y="-7"/>
      <point x="2" y="-7" type="curve" smooth="yes"/>
      <point x="40" y="-7"/>
      <point x="69" y="2"/>
    </contour>
  </outline>
</glyph>
<glyph name="U" format="1">
  <advance width="554"/>
  <unicode hex="0055"/>
  <outline>
    <contour>
      <point x="-25" y="105" type="line" smooth="yes"/>
      <point x="-25" y="37"/>
      <point x="9" y="-2"/>
      <point x="67" y="-2" type="curve" smooth="yes"/>
      <point x="125" y="-2"/>
      <point x="159" y="37"/>
      <point x="159" y="105" type="curve" smooth="yes"/>
      <point x="159" y="383" type="line"/>
      <point x="299" y="383" type="line"/>
      <point x="299" y="105" type="line" smooth="yes"/>
      <point x="299" y="-42"/>
      <point x="224" y="-127"/>
      <point x="67" y="-127" type="curve" smooth="yes"/>
      <point x="-90" y="-127"/>
      <point x="-165" y="-32"/>
      <point x="-165" y="105" type="curve" smooth="yes"/>
      <point x="-165" y="383" type="line"/>
      <point x="-25" y="383" type="line"/>
    </contour>
  </outline>
</glyph>
<glyph name="X" format="1">
  <advance width="620"/>
  <unicode hex="0058"/>
  <outline>
    <contour>
      <point x="390" y="-117" type="line"/>
      <point x="220" y="-117" type="line"/>
      <point x="100" y="37" type="line"/>
      <point x="-20" y="-117" type="line"/>
      <point x="-190" y="-117" type="line"/>
      <point x="15" y="146" type="line"/>
      <point x="-170" y="383" type="line"/>
      <point x="0" y="383" type="line"/>
      <point x="100" y="255" type="line"/>
      <point x="200" y="383" type="line"/>
      <point x="370" y="383" type="line"/>
      <point x="185" y="146" type="line"/>
    </contour>
  </outline>
</glyph>
<glyph name="backslash" format="1">
  <advance width="460"/>
  <unicode hex="005C"/>
  <outline>
    <contour>
      <point x="240" y="-117" type="line"/>
      <point x="110" y="-117" type="line"/>
      <point x="-200" y="383" type="line"/>
      <point x="-70" y="383" type="line"/>
    </contour>
  </outline>
</glyph>
<glyph name="i" format="1">
  <advance width="271"/>
  <unicode hex="0069"/>
  <outline>
    <contour>
      <point x="-142" y="-117" type="line"/>
      <point x="-142" y="268" type="line"/>
      <point x="-7" y="268" type="line"/>
      <point x="-7" y="-117" type="line"/>
    </contour>
    <contour>
      <point x="-75" y="325" type="line"/>
      <point x="-170" y="420" type="line"/>
      <point x="-75" y="516" type="line"/>
      <point x="21" y="420" type="line"/>
    </contour>
  </outline>
</glyph>
<glyph name="o" format="1">
  <advance width="474"/>
  <unicode hex="006F"/>
  <outline>
    <contour>
      <point x="-45" y="75" type="curve" smooth="yes"/>
      <point x="-45" y="27"/>
      <point x="-21" y="-12"/>
      <point x="27" y="-12" type="curve" smooth="yes"/>
      <point x="75" y="-12"/>
      <point x="99" y="27"/>
      <point x="99" y="75" type="curve" smooth="yes"/>
      <point x="99" y="123"/>
      <point x="75" y="163"/>
      <point x="27" y="163" type="curve" smooth="yes"/>
      <point x="-21" y="163"/>
      <point x="-45" y="123"/>
    </contour>
    <contour>
      <point x="-175" y="75" type="curve" smooth="yes"/>
      <point x="-175" y="202"/>
      <point x="-90" y="278"/>
      <point x="27" y="278" type="curve" smooth="yes"/>
      <point x="144" y="278"/>
      <point x="229" y="202"/>
      <point x="229" y="75" type="curve" smooth="yes"/>
      <point x="229" y="-52"/>
      <point x="144" y="-127"/>
      <point x="27" y="-127" type="curve" smooth="yes"/>
      <point x="-90" y="-127"/>
      <point x="-175" y="-42"/>
    </contour>
  </outline>
</glyph>
<glyph name="q" format="1">
  <advance width="499"/>
  <unicode hex="0071"/>
  <outline>
    <contour>
      <point x="254" y="268" type="line"/>
      <point x="254" y="-262" type="line"/>
      <point x="119" y="-262" type="line"/>
      <point x="119" y="-78" type="line"/>
      <point x="88" y="-109"/>
      <point x="47" y="-127"/>
      <point x="2" y="-127" type="curve" smooth="yes"/>
      <point x="-105" y="-127"/>
      <point x="-170" y="-41"/>
      <point x="-170" y="76" type="curve" smooth="yes"/>
      <point x="-170" y="193"/>
      <point x="-105" y="278"/>
      <point x="2" y="278" type="curve" smooth="yes"/>
      <point x="47" y="278"/>
      <point x="88" y="258"/>
      <point x="119" y="226" type="curve"/>
      <point x="119" y="268" type="line"/>
    </contour>
    <contour>
      <point x="119" y="135" type="line"/>
      <point x="100" y="159"/>
      <point x="71" y="173"/>
      <point x="42" y="173" type="curve" smooth="yes"/>
      <point x="-6" y="173"/>
      <point x="-35" y="134"/>
      <point x="-35" y="76" type="curve" smooth="yes"/>
      <point x="-35" y="18"/>
      <point x="-6" y="-22"/>
      <point x="42" y="-22" type="curve" smooth="yes"/>
      <point x="71" y="-22"/>
      <point x="100" y="-7"/>
      <point x="119" y="17" type="curve"/>
    </contour>
  </outline>
</glyph>
<glyph name="s" format="1">
  <advance width="374"/>
  <unicode hex="0073"/>
  <outline>
    <contour>
      <point x="4" y="-5" type="curve" smooth="yes"/>
      <point x="4" y="45"/>
      <point x="-164" y="41"/>
      <point x="-164" y="161" type="curve" smooth="yes"/>
      <point x="-164" y="258"/>
      <point x="-89" y="283"/>
      <point x="-12" y="283" type="curve" smooth="yes"/>
      <point x="25" y="283"/>
      <point x="75" y="268"/>
      <point x="125" y="221" type="curve"/>
      <point x="85" y="131" type="line"/>
      <point x="45" y="169"/>
      <point x="17" y="183"/>
      <point x="-1" y="183" type="curve" smooth="yes"/>
      <point x="-19" y="183"/>
      <point x="-29" y="174"/>
      <point x="-29" y="161" type="curve" smooth="yes"/>
      <point x="-29" y="111"/>
      <point x="139" y="109"/>
      <point x="139" y="5" type="curve" smooth="yes"/>
      <point x="139" y="-92"/>
      <point x="54" y="-132"/>
      <point x="-23" y="-132" type="curve" smooth="yes"/>
      <point x="-90" y="-132"/>
      <point x="-140" y="-117"/>
      <point x="-190" y="-70" type="curve"/>
      <point x="-150" y="20" type="line"/>
      <point x="-110" y="-18"/>
      <point x="-61" y="-32"/>
      <point x="-43" y="-32" type="curve" smooth="yes"/>
      <point x="-15" y="-32"/>
      <point x="4" y="-26"/>
    </contour>
  </outline>
</glyph>
<glyph name="y" format="1">
  <advance width="470"/>
  <unicode hex="0079"/>
  <outline>
    <contour>
      <point x="-30" y="-86" type="line"/>
      <point x="-200" y="268" type="line"/>
      <point x="-45" y="268" type="line"/>
      <point x="29" y="65" type="line"/>
      <point x="110" y="268" type="line"/>
      <point x="250" y="268" type="line"/>
      <point x="30" y="-262" type="line"/>
      <point x="-100" y="-262" type="line"/>
    </contour>
  </outline>
</glyph>
<glyph name="quotedblleft" format="1">
  <advance width="430"/>
  <unicode hex="201C"/>
  <outline>
    <contour>
      <point x="175" y="423" type="line"/>
      <point x="175" y="163" type="line"/>
      <point x="45" y="163" type="line"/>
      <point x="45" y="303" type="line"/>
    </contour>
    <contour>
      <point x="-35" y="423" type="line"/>
      <point x="-35" y="163" type="line"/>
      <point x="-165" y="163" type="line"/>
      <point x="-165" y="303" type="line"/>
    </contour>
  </outline>
</glyph>
<glyph name="quotedblright" format="1">
  <advance width="430"/>
  <unicode hex="201D"/>
  <outline>
    <contour>
      <point x="45" y="123" type="line"/>
      <point x="45" y="383" type="line"/>
      <point x="175" y="383" type="line"/>
      <point x="175" y="243" type="line"/>
    </contour>
    <contour>
      <point x="-165" y="123" type="line"/>
      <point x="-165" y="383" type="line"/>
      <point x="-35" y="383" type="line"/>
      <point x="-35" y="243" type="line"/>
    </contour>
  </outline>
</glyph>
